# xmcd
#
# Track frame offsets:
#	150
#	21372
#	35370
#	52927
#	70512
#	83670
#	102682
#	121545
#	138572
#	158720
#	179209
#	196222
#	211382
#	216702
#
# Disc length: 3169 seconds
#
# Revision: 1
# Processed by: cddbd v1.5.2PL0 Copyright (c) Steve Scherf et al.
# Submitted via: dBpowerAMP V4.0
#
DISCID=ca0c5f0e
DTITLE=Various Artist - MACC Volume LXXVII
DYEAR=1900
DGENRE=
TTITLE0=Kenny G - The Moment
TTITLE1=Joe Cocker - Anybody Seen My Girl
TTITLE2=Eleanor McEvoy - Precious Little
TTITLE3=Simply Red - Angel
TTITLE4=Gretchen Peters - When You Are Old
TTITLE5=Chuck Negron - Grown Up Christmas List
TTITLE6=For Real - Like I Do
TTITLE7=Enigma - Beyond The Invisible
TTITLE8=Jerry Pia - T'was The Night Before Christmas
TTITLE9=Toni Braxton - Un-Break My Heart
TTITLE10=Sting - I'm So Happy I Can't Stop Crying
TTITLE11=Susanna Hoffs - All I Want
TTITLE12=Pat McCoy - Intro
TTITLE13=Chuck Negron - White Christmas
EXTD=
EXTT0=
EXTT1=
EXTT2=
EXTT3=
EXTT4=
EXTT5=
EXTT6=
EXTT7=
EXTT8=
EXTT9=
EXTT10=
EXTT11=
EXTT12=
EXTT13=
PLAYORDER=
